<svg width="31" height="31" xmlns="http://www.w3.org/2000/svg" xmlns:xlink="http://www.w3.org/1999/xlink" xml:space="preserve" overflow="hidden"><defs><clipPath id="clip0"><rect x="591" y="315" width="31" height="31"/></clipPath></defs><g clip-path="url(#clip0)" transform="translate(-591 -315)"><path d="M614.864 330.92C615.445 333.277 613.023 335.602 610.633 334.633 608.631 333.923 607.856 331.598 609.245 329.596 612.377 325.43 610.084 318.875 604.885 316.615 607.243 321.071 603.626 325.172 601.559 326.883 599.493 328.595 598.104 330.371 597.684 331.404 595.585 336.506 598.718 341.382 600.849 342.545 599.88 340.349 598.976 336.151 602.786 332.211 602.786 332.211 601.689 336.409 604.078 339.316 606.468 342.222 606.435 344.385 606.435 344.385 610.149 344.385 613.669 342.157 615.154 338.508 616.284 336.345 616.381 332.922 614.864 330.92" stroke="#FF9933" stroke-width="1.33333" fill="#FF0000"/></g></svg>